<svg width="26" height="16" viewBox="0 0 26 16" fill="none" xmlns="http://www.w3.org/2000/svg">
<path d="M13.6041 1.23838L15.1354 4.33101C15.3195 4.70279 15.6727 4.96182 16.0826 5.02565L19.5687 5.56841C20.1684 5.66174 20.3982 6.40413 19.9562 6.82001L17.4617 9.16645C17.149 9.46066 17.0051 9.89254 17.079 10.3156L17.6898 13.8116C17.7952 14.4147 17.1553 14.8713 16.6193 14.5756L13.5671 12.8915C13.1834 12.6797 12.7179 12.6797 12.3342 12.8915L9.28199 14.5756C8.74591 14.8713 8.10601 14.4147 8.21145 13.8116L8.82231 10.3156C8.89623 9.89254 8.75243 9.46066 8.43959 9.16645L5.94515 6.82001C5.5031 6.40413 5.73286 5.66174 6.33261 5.56841L9.81869 5.02565C10.2286 4.96182 10.5819 4.70279 10.7659 4.33101L12.2972 1.23838C12.5649 0.697559 13.3363 0.697559 13.6041 1.23838Z" fill="white"/>
<path d="M19.5659 5.56739L18.5452 5.40845C18.5775 5.62873 18.5111 5.86525 18.3227 6.04252L15.8283 8.38896C15.5155 8.68317 15.3717 9.11504 15.4456 9.53807L16.0564 13.0341C16.1367 13.4936 15.7844 13.868 15.375 13.8895L16.6164 14.5745C17.1525 14.8702 17.7924 14.4137 17.687 13.8105L17.0761 10.3145C17.0022 9.89144 17.146 9.45957 17.4588 9.16536L19.9533 6.81892C20.3954 6.40319 20.1656 5.6608 19.5659 5.56739Z" fill="white"/>
<path d="M5.54683 7.24374L8.04127 9.59018C8.21178 9.7506 8.28959 9.98416 8.24937 10.2149L7.63851 13.7109C7.55077 14.2127 7.75389 14.7083 8.16853 15.0042C8.58325 15.3001 9.11809 15.331 9.56402 15.0849L12.6162 13.4008C12.8261 13.2851 13.0767 13.2851 13.2865 13.4008L16.3387 15.0849C16.7806 15.3288 17.3155 15.3029 17.7342 15.0043C18.1489 14.7083 18.352 14.2127 18.2643 13.7109L17.6534 10.2149C17.6131 9.98409 17.6909 9.7506 17.8615 9.59018L20.356 7.24374C20.7238 6.89774 20.8595 6.38309 20.7102 5.90067C20.5609 5.41824 20.1581 5.0703 19.6591 4.99257L16.173 4.44982C15.9506 4.41518 15.758 4.27402 15.6581 4.07214L14.1267 0.979579C14.1266 0.979579 14.1266 0.979579 14.1266 0.979579C13.9038 0.529532 13.4534 0.25 12.9512 0.25C12.449 0.25 11.9987 0.52961 11.7759 0.979579L10.2447 4.07214C10.1447 4.27402 9.95218 4.41518 9.72972 4.44982L6.24357 4.99257C5.74452 5.07022 5.34177 5.41824 5.19245 5.90074C5.04313 6.38325 5.17894 6.89782 5.54683 7.24374ZM6.30514 6.24503C6.31749 6.20504 6.34793 6.15504 6.42278 6.14331L9.90886 5.60056C10.505 5.50777 11.0206 5.12962 11.2885 4.58888L12.8198 1.49625C12.8532 1.42877 12.9097 1.41464 12.9513 1.41464C12.9928 1.41464 13.0494 1.42877 13.0828 1.49633L14.6141 4.58896C14.8817 5.12962 15.3975 5.50784 15.9937 5.60063L19.4798 6.14339C19.5547 6.15504 19.5851 6.20512 19.5975 6.24511C19.6099 6.28502 19.613 6.34357 19.5578 6.39544L17.0635 8.7418C16.6064 9.17166 16.398 9.79727 16.506 10.4154L17.1169 13.9114C17.13 13.9867 17.0919 14.0317 17.0575 14.0562C17.0233 14.0807 16.9683 14.1022 16.9013 14.0652L13.849 12.3811C13.2868 12.0709 12.6156 12.0709 12.0534 12.3811L9.00123 14.0652C8.93422 14.1021 8.87924 14.0807 8.845 14.0562C8.81068 14.0316 8.77248 13.9867 8.7856 13.9114L9.39653 10.4153C9.50446 9.79719 9.29606 9.17158 8.8391 8.7418L6.34466 6.39536C6.28961 6.34349 6.2928 6.28502 6.30514 6.24503Z" fill="white"/>
<path d="M0.580406 9.86589H2.29029C2.61198 9.86589 2.87265 9.60515 2.87265 9.28353C2.87265 8.96191 2.61198 8.70117 2.29029 8.70117H0.580406C0.258711 8.70117 -0.00195312 8.96191 -0.00195312 9.28353C-0.00195312 9.60515 0.258711 9.86589 0.580406 9.86589Z" fill="white"/>
<path d="M2.88869 12.4772L1.68034 13.6856C1.45291 13.913 1.45291 14.2817 1.68034 14.5091C1.90785 14.7365 2.27652 14.7365 2.50395 14.5091L3.7123 13.3007C3.93974 13.0733 3.93974 12.7046 3.7123 12.4772C3.48487 12.2498 3.1162 12.2498 2.88869 12.4772Z" fill="white"/>
<path d="M2.87971 6.07138C3.10698 6.29881 3.47581 6.29881 3.70324 6.07138C3.93067 5.84395 3.93067 5.4752 3.70324 5.24785L2.49411 4.0388C2.2666 3.81121 1.89785 3.81136 1.67057 4.0388C1.44314 4.26623 1.44314 4.63497 1.67057 4.86233L2.87971 6.07138Z" fill="white"/>
<path d="M23.0215 9.28353C23.0215 9.60515 23.2821 9.86589 23.6038 9.86589H25.3137C25.6354 9.86589 25.8961 9.60515 25.8961 9.28353C25.8961 8.96191 25.6354 8.70117 25.3137 8.70117H23.6038C23.2821 8.70117 23.0215 8.96191 23.0215 9.28353Z" fill="white"/>
<path d="M23.3965 14.5091C23.624 14.7365 23.9927 14.7365 24.2201 14.5091C24.4475 14.2817 24.4475 13.9129 24.2201 13.6856L23.0118 12.4772C22.7843 12.2498 22.4156 12.2498 22.1882 12.4772C21.9607 12.7046 21.9607 13.0734 22.1882 13.3007L23.3965 14.5091Z" fill="white"/>
<path d="M23.0156 6.07132L24.2247 4.86227C24.4522 4.63484 24.4522 4.26617 24.2247 4.03874C23.9973 3.81131 23.6285 3.81131 23.4012 4.03874L22.1921 5.24779C21.9646 5.47522 21.9646 5.84389 22.1921 6.07132C22.4194 6.29868 22.7882 6.29883 23.0156 6.07132Z" fill="white"/>
</svg>
