<svg width="26" height="16" viewBox="0 0 26 16" fill="none" xmlns="http://www.w3.org/2000/svg">
<path d="M13.6061 1.23838L15.1373 4.33101C15.3214 4.70279 15.6747 4.96182 16.0846 5.02565L19.5706 5.56841C20.1703 5.66174 20.4002 6.40413 19.9581 6.82001L17.4637 9.16645C17.1509 9.46066 17.007 9.89254 17.0809 10.3156L17.6918 13.8116C17.7972 14.4147 17.1573 14.8713 16.6213 14.5756L13.5691 12.8915C13.1854 12.6797 12.7199 12.6797 12.3361 12.8915L9.28394 14.5756C8.74786 14.8713 8.10796 14.4147 8.21341 13.8116L8.82426 10.3156C8.89818 9.89254 8.75438 9.46066 8.44154 9.16645L5.9471 6.82001C5.50505 6.40413 5.73481 5.66174 6.33456 5.56841L9.82064 5.02565C10.2305 4.96182 10.5838 4.70279 10.7679 4.33101L12.2992 1.23838C12.5669 0.697559 13.3382 0.697559 13.6061 1.23838Z" fill="#3D9BE9"/>
<path d="M19.5678 5.56739L18.5472 5.40845C18.5795 5.62873 18.5131 5.86525 18.3247 6.04252L15.8303 8.38896C15.5175 8.68317 15.3736 9.11504 15.4475 9.53807L16.0584 13.0341C16.1387 13.4936 15.7864 13.868 15.377 13.8895L16.6184 14.5745C17.1545 14.8702 17.7944 14.4137 17.6889 13.8105L17.0781 10.3145C17.0041 9.89144 17.1479 9.45957 17.4608 9.16536L19.9552 6.81892C20.3974 6.40319 20.1676 5.6608 19.5678 5.56739Z" fill="#3D9BE9"/>
<path d="M5.54879 7.24374L8.04322 9.59018C8.21374 9.7506 8.29154 9.98416 8.25132 10.2149L7.64046 13.7109C7.55272 14.2127 7.75585 14.7083 8.17049 15.0042C8.5852 15.3001 9.12004 15.331 9.56597 15.0849L12.6182 13.4008C12.828 13.2851 13.0786 13.2851 13.2885 13.4008L16.3407 15.0849C16.7826 15.3288 17.3175 15.3029 17.7362 15.0043C18.1509 14.7083 18.354 14.2127 18.2663 13.7109L17.6554 10.2149C17.6151 9.98409 17.6928 9.7506 17.8635 9.59018L20.3579 7.24374C20.7258 6.89774 20.8615 6.38309 20.7122 5.90067C20.5628 5.41824 20.1601 5.0703 19.661 4.99257L16.175 4.44982C15.9525 4.41518 15.7599 4.27402 15.6601 4.07214L14.1286 0.979579C14.1286 0.979579 14.1286 0.979579 14.1286 0.979579C13.9057 0.529532 13.4554 0.25 12.9531 0.25C12.451 0.25 12.0006 0.52961 11.7778 0.979579L10.2466 4.07214C10.1466 4.27402 9.95414 4.41518 9.73167 4.44982L6.24552 4.99257C5.74648 5.07022 5.34372 5.41824 5.1944 5.90074C5.04508 6.38325 5.18089 6.89782 5.54879 7.24374ZM6.30709 6.24503C6.31944 6.20504 6.34988 6.15504 6.42473 6.14331L9.91081 5.60056C10.5069 5.50777 11.0226 5.12962 11.2905 4.58888L12.8217 1.49625C12.8551 1.42877 12.9117 1.41464 12.9532 1.41464C12.9947 1.41464 13.0514 1.42877 13.0847 1.49633L14.616 4.58896C14.8837 5.12962 15.3995 5.50784 15.9957 5.60063L19.4818 6.14339C19.5566 6.15504 19.587 6.20512 19.5995 6.24511C19.6118 6.28502 19.6149 6.34357 19.5598 6.39544L17.0654 8.7418C16.6083 9.17166 16.4 9.79727 16.508 10.4154L17.1189 13.9114C17.132 13.9867 17.0939 14.0317 17.0595 14.0562C17.0252 14.0807 16.9702 14.1022 16.9032 14.0652L13.851 12.3811C13.2888 12.0709 12.6175 12.0709 12.0554 12.3811L9.00318 14.0652C8.93617 14.1021 8.8812 14.0807 8.84695 14.0562C8.81263 14.0316 8.77443 13.9867 8.78755 13.9114L9.39849 10.4153C9.50642 9.79719 9.29801 9.17158 8.84105 8.7418L6.34662 6.39536C6.29157 6.34349 6.29475 6.28502 6.30709 6.24503Z" fill="#3D9BE9"/>
<path d="M0.582359 9.86589H2.29224C2.61394 9.86589 2.8746 9.60515 2.8746 9.28353C2.8746 8.96191 2.61394 8.70117 2.29224 8.70117H0.582359C0.260664 8.70117 0 8.96191 0 9.28353C0 9.60515 0.260664 9.86589 0.582359 9.86589Z" fill="#3D9BE9"/>
<path d="M2.89065 12.4772L1.68229 13.6856C1.45486 13.913 1.45486 14.2817 1.68229 14.5091C1.9098 14.7365 2.27847 14.7365 2.5059 14.5091L3.71426 13.3007C3.94169 13.0733 3.94169 12.7046 3.71426 12.4772C3.48683 12.2498 3.11816 12.2498 2.89065 12.4772Z" fill="#3D9BE9"/>
<path d="M2.88166 6.07138C3.10893 6.29881 3.47776 6.29881 3.70519 6.07138C3.93262 5.84395 3.93262 5.4752 3.70519 5.24785L2.49606 4.0388C2.26855 3.81121 1.8998 3.81136 1.67253 4.0388C1.4451 4.26623 1.4451 4.63497 1.67253 4.86233L2.88166 6.07138Z" fill="#3D9BE9"/>
<path d="M23.0234 9.28353C23.0234 9.60515 23.2841 9.86589 23.6058 9.86589H25.3157C25.6374 9.86589 25.898 9.60515 25.898 9.28353C25.898 8.96191 25.6374 8.70117 25.3157 8.70117H23.6058C23.2841 8.70117 23.0234 8.96191 23.0234 9.28353Z" fill="#3D9BE9"/>
<path d="M23.3985 14.5091C23.626 14.7365 23.9946 14.7365 24.2221 14.5091C24.4495 14.2817 24.4495 13.9129 24.2221 13.6856L23.0137 12.4772C22.7862 12.2498 22.4175 12.2498 22.1901 12.4772C21.9627 12.7046 21.9627 13.0734 22.1901 13.3007L23.3985 14.5091Z" fill="#3D9BE9"/>
<path d="M23.0175 6.07132L24.2267 4.86227C24.4541 4.63484 24.4541 4.26617 24.2267 4.03874C23.9992 3.81131 23.6305 3.81131 23.4031 4.03874L22.194 5.24779C21.9666 5.47522 21.9666 5.84389 22.194 6.07132C22.4214 6.29868 22.7901 6.29883 23.0175 6.07132Z" fill="#3D9BE9"/>
</svg>
