<svg width="17" height="18" viewBox="0 0 17 18" fill="none" xmlns="http://www.w3.org/2000/svg">
<path fill-rule="evenodd" clip-rule="evenodd" d="M0.000244141 9.25C0.000244141 4.558 3.79974 0.75 8.50024 0.75C13.1922 0.75 17.0002 4.558 17.0002 9.25C17.0002 13.9505 13.1922 17.75 8.50024 17.75C3.79974 17.75 0.000244141 13.9505 0.000244141 9.25ZM10.3969 10.8055L11.7739 6.45348C11.8674 6.15598 11.5954 5.87548 11.2979 5.96898L6.94592 7.32898C6.76742 7.38848 6.62292 7.52448 6.57192 7.70298L5.21192 12.0635C5.11842 12.3525 5.39892 12.633 5.68792 12.5395L10.0229 11.1795C10.2014 11.1285 10.3459 10.984 10.3969 10.8055Z" fill="#3D9BE9"/>
</svg>
