<svg width="17" height="17" viewBox="0 0 17 17" fill="none" xmlns="http://www.w3.org/2000/svg">
<path fill-rule="evenodd" clip-rule="evenodd" d="M0 8.5C0 3.808 3.7995 0 8.5 0C13.192 0 17 3.808 17 8.5C17 13.2005 13.192 17 8.5 17C3.7995 17 0 13.2005 0 8.5ZM10.3967 10.0555L11.7737 5.70348C11.8672 5.40598 11.5952 5.12548 11.2977 5.21898L6.94568 6.57898C6.76718 6.63848 6.62268 6.77448 6.57168 6.95298L5.21168 11.3135C5.11818 11.6025 5.39868 11.883 5.68768 11.7895L10.0227 10.4295C10.2012 10.3785 10.3457 10.234 10.3967 10.0555Z" fill="white"/>
</svg>
