<svg width="18" height="20" viewBox="0 0 18 20" fill="none" xmlns="http://www.w3.org/2000/svg">
<path d="M17.0275 5.68136L15.3003 7.40864C15.2196 7.48868 15.1238 7.55201 15.0186 7.59498C14.9134 7.63796 14.8007 7.65975 14.6871 7.65909H9.50525V18.0227H12.0962C12.3252 18.0227 12.5449 18.1137 12.7068 18.2757C12.8688 18.4376 12.9598 18.6573 12.9598 18.8864C12.9598 19.1154 12.8688 19.3351 12.7068 19.497C12.5449 19.659 12.3252 19.75 12.0962 19.75H5.18707C4.95802 19.75 4.73835 19.659 4.57639 19.497C4.41442 19.3351 4.32343 19.1154 4.32343 18.8864C4.32343 18.6573 4.41442 18.4376 4.57639 18.2757C4.73835 18.1137 4.95802 18.0227 5.18707 18.0227H7.77798V12.8409H2.59616C2.4825 12.8416 2.36983 12.8198 2.26461 12.7768C2.15938 12.7338 2.06368 12.6705 1.98298 12.5905L0.255706 10.8632C0.174759 10.7829 0.110509 10.6874 0.0666637 10.5821C0.0228181 10.4769 0.000244141 10.364 0.000244141 10.25C0.000244141 10.136 0.0228181 10.0231 0.0666637 9.91787C0.110509 9.81262 0.174759 9.7171 0.255706 9.63682L1.98298 7.90955C2.06368 7.8295 2.15938 7.76618 2.26461 7.7232C2.36983 7.68022 2.4825 7.65843 2.59616 7.65909H7.77798V1.61364C7.77798 1.38459 7.86897 1.16492 8.03093 1.00295C8.1929 0.84099 8.41256 0.75 8.64161 0.75C8.87067 0.75 9.09033 0.84099 9.2523 1.00295C9.41426 1.16492 9.50525 1.38459 9.50525 1.61364V2.47727H14.6871C14.8007 2.47662 14.9134 2.4984 15.0186 2.54138C15.1238 2.58436 15.2196 2.64768 15.3003 2.72773L17.0275 4.455C17.1085 4.53529 17.1727 4.63081 17.2166 4.73605C17.2604 4.84129 17.283 4.95417 17.283 5.06818C17.283 5.18219 17.2604 5.29507 17.2166 5.40032C17.1727 5.50556 17.1085 5.60108 17.0275 5.68136Z" fill="#3D9BE9"/>
</svg>
