<svg width="18" height="19" viewBox="0 0 18 19" fill="none" xmlns="http://www.w3.org/2000/svg">
<path d="M17.0273 4.93136L15.3 6.65864C15.2193 6.73868 15.1236 6.80201 15.0184 6.84498C14.9132 6.88796 14.8005 6.90975 14.6868 6.90909H9.50501V17.2727H12.0959C12.325 17.2727 12.5446 17.3637 12.7066 17.5257C12.8686 17.6876 12.9596 17.9073 12.9596 18.1364C12.9596 18.3654 12.8686 18.5851 12.7066 18.747C12.5446 18.909 12.325 19 12.0959 19H5.18683C4.95777 19 4.73811 18.909 4.57614 18.747C4.41418 18.5851 4.32319 18.3654 4.32319 18.1364C4.32319 17.9073 4.41418 17.6876 4.57614 17.5257C4.73811 17.3637 4.95777 17.2727 5.18683 17.2727H7.77773V12.0909H2.59592C2.48226 12.0916 2.36958 12.0698 2.26436 12.0268C2.15914 11.9838 2.06343 11.9205 1.98273 11.8405L0.255462 10.1132C0.174515 10.0329 0.110265 9.93738 0.0664196 9.83213C0.0225739 9.72689 0 9.61401 0 9.5C0 9.38599 0.0225739 9.27311 0.0664196 9.16787C0.110265 9.06262 0.174515 8.9671 0.255462 8.88682L1.98273 7.15955C2.06343 7.0795 2.15914 7.01618 2.26436 6.9732C2.36958 6.93022 2.48226 6.90843 2.59592 6.90909H7.77773V0.863636C7.77773 0.634586 7.86872 0.414916 8.03069 0.252953C8.19265 0.09099 8.41232 0 8.64137 0C8.87042 0 9.09009 0.09099 9.25205 0.252953C9.41402 0.414916 9.50501 0.634586 9.50501 0.863636V1.72727H14.6868C14.8005 1.72662 14.9132 1.7484 15.0184 1.79138C15.1236 1.83436 15.2193 1.89768 15.3 1.97773L17.0273 3.705C17.1082 3.78529 17.1725 3.88081 17.2163 3.98605C17.2602 4.09129 17.2827 4.20417 17.2827 4.31818C17.2827 4.43219 17.2602 4.54507 17.2163 4.65032C17.1725 4.75556 17.1082 4.85108 17.0273 4.93136Z" fill="white"/>
</svg>
