<svg width="18" height="17" viewBox="0 0 18 17" fill="none" xmlns="http://www.w3.org/2000/svg">
<path d="M17.2543 16.7369V16.7362H17.2584V10.7454C17.2584 7.8146 16.6284 5.55698 13.2072 5.55698C11.5625 5.55698 10.4588 6.46084 10.0082 7.31775H9.96064V5.83059H6.7168V16.7362H10.0945V11.3361C10.0945 9.91433 10.3637 8.53947 12.1218 8.53947C13.8542 8.53947 13.88 10.1621 13.88 11.4273V16.7369H17.2543Z" fill="#CCCCCC"/>
<path d="M1.20703 5.82993H4.58883V16.7355H1.20703V5.82993Z" fill="#CCCCCC"/>
<path d="M2.90008 0.400726C1.8188 0.400726 0.941406 1.27941 0.941406 2.36228C0.941406 3.44515 1.8188 4.34222 2.90008 4.34222C3.98136 4.34222 4.85875 3.44515 4.85875 2.36228C4.85807 1.27941 3.98068 0.400726 2.90008 0.400726V0.400726Z" fill="#CCCCCC"/>
</svg>
