<svg width="18" height="17" viewBox="0 0 18 17" fill="none" xmlns="http://www.w3.org/2000/svg">
<path fill-rule="evenodd" clip-rule="evenodd" d="M6.71105 7.8455C6.33917 7.8455 6.04513 8.1345 6.04513 8.5C6.04513 8.857 6.33917 9.1545 6.71105 9.1545H11.9V13.2175C11.9 15.3 10.179 17 8.05153 17H3.83983C1.721 17 0 15.3085 0 13.226V3.7825C0 1.6915 1.72965 0 3.84847 0H8.06882C10.179 0 11.9 1.6915 11.9 3.774V7.8455H6.71105ZM14.9888 5.55873L17.4708 8.03223C17.5983 8.15973 17.6663 8.32123 17.6663 8.49973C17.6663 8.66973 17.5983 8.83973 17.4708 8.95873L14.9888 11.4322C14.8613 11.5597 14.6913 11.6277 14.5298 11.6277C14.3598 11.6277 14.1898 11.5597 14.0623 11.4322C13.8073 11.1772 13.8073 10.7607 14.0623 10.5057L15.4223 9.15423H11.9033V7.84523H15.4223L14.0623 6.49373C13.8073 6.23873 13.8073 5.82223 14.0623 5.56723C14.3173 5.30373 14.7338 5.30373 14.9888 5.55873Z" fill="white"/>
</svg>
