<svg width="18" height="18" viewBox="0 0 18 18" fill="none" xmlns="http://www.w3.org/2000/svg">
<g clip-path="url(#clip0_29_1325)">
<path d="M10.1785 10.4844C9.7556 10.7664 9.26433 10.9154 8.75781 10.9154C8.25133 10.9154 7.76006 10.7664 7.33712 10.4844L0.371002 5.84017C0.332354 5.81441 0.294701 5.78755 0.257812 5.75992V13.37C0.257812 14.2425 0.965869 14.9349 1.82278 14.9349H15.6928C16.5653 14.9349 17.2578 14.2269 17.2578 13.37V5.75989C17.2208 5.78758 17.1831 5.81451 17.1444 5.84031L10.1785 10.4844Z" fill="#CCCCCC"/>
<path d="M0.923535 5.01136L7.88965 9.65561C8.15335 9.83142 8.45556 9.91931 8.75778 9.91931C9.06003 9.91931 9.36228 9.83139 9.62597 9.65561L16.5921 5.01136C17.009 4.73361 17.2578 4.26877 17.2578 3.76707C17.2578 2.90442 16.556 2.20264 15.6934 2.20264H1.82224C0.959627 2.20267 0.257812 2.90445 0.257812 3.7679C0.257812 4.26877 0.506703 4.73361 0.923535 5.01136Z" fill="#CCCCCC"/>
</g>
<defs>
<clipPath id="clip0_29_1325">
<rect width="17" height="17" fill="white" transform="translate(0.257812 0.0688171)"/>
</clipPath>
</defs>
</svg>
