<svg width="18" height="18" viewBox="0 0 18 18" fill="none" xmlns="http://www.w3.org/2000/svg">
<path d="M0.602947 1.33912C0.986932 0.963453 1.5042 0.756836 2.04368 0.759966C2.89099 0.756836 3.71925 0.756836 4.50626 0.756836H5.7566C6.83239 0.759966 7.72412 1.63965 7.74316 2.72283C7.76538 4.01575 7.76538 5.21788 7.74316 6.39184C7.72095 7.51571 6.84191 8.37348 5.6963 8.38601C5.07748 8.3954 4.45549 8.39853 3.84937 8.39853C2.09129 8.41418 0.16184 8.63332 0.0126891 6.33236C0.019036 5.65929 0.0126891 4.99561 0.0126891 4.32567C0.0539437 3.32389 -0.222145 2.09985 0.602947 1.33912Z" fill="white"/>
<path d="M7.74946 13.6057C7.74946 14.2694 7.74629 14.9581 7.75263 15.6343C7.78437 16.7675 6.84186 17.7631 5.69308 17.7443C4.74105 17.7224 3.71286 17.7474 2.74814 17.7411C1.98969 17.7756 1.14556 17.7349 0.606073 17.1557C0.0824576 16.6768 -0.0317858 15.9223 0.0126422 15.2336C0.00946875 14.2036 0.00946875 13.1392 0.018989 12.0905C0.0221625 11.1952 0.634634 10.4156 1.5105 10.1871C2.32924 10.0243 3.09404 10.137 4.01434 10.1026C4.5443 10.1026 5.07109 10.1026 5.60105 10.1057C7.79389 10.2184 7.81928 11.8807 7.74946 13.6057Z" fill="white"/>
<path d="M16.0714 11.2309C18.4927 13.5913 16.7473 17.7675 13.3359 17.7456C9.94665 17.7644 8.15683 13.5945 10.6004 11.2372C12.0443 9.75015 14.6275 9.7345 16.0714 11.2309Z" fill="white"/>
<path d="M9.48065 6.35135C9.46478 5.07721 9.46478 3.90325 9.48065 2.76686C9.47748 1.66178 10.3851 0.760174 11.5053 0.757044H11.5307C12.7461 0.747652 13.9584 0.747652 15.2277 0.757044C16.2781 0.741391 17.2238 1.68369 17.2111 2.7199C17.2175 3.41802 17.2111 4.10361 17.2111 4.79546C17.1762 5.79724 17.4301 7.04007 16.6177 7.79767C15.7894 8.65231 14.4153 8.32986 13.3427 8.39561C12.7334 8.39561 12.1241 8.39247 11.5339 8.38308C10.4041 8.38621 9.48382 7.48774 9.48065 6.37013C9.48065 6.367 9.48065 6.36074 9.48065 6.35135Z" fill="white"/>
</svg>
